<svg xmlns="http://www.w3.org/2000/svg" version="1.1" xmlns:xlink="http://www.w3.org/1999/xlink" xmlns:svgjs="http://svgjs.dev/svgjs" width="1500" height="1500" viewBox="0 0 1500 1500"><rect width="1500" height="1500" fill="#ffffff"></rect><g transform="matrix(0.6666666666666666,0,0,0.6666666666666666,249.39393939393932,488.1117339281349)"><svg viewBox="0 0 396 207" data-background-color="#4880ff" preserveAspectRatio="xMidYMid meet" height="784" width="1500" xmlns="http://www.w3.org/2000/svg" xmlns:xlink="http://www.w3.org/1999/xlink"><g id="tight-bounds" transform="matrix(1,0,0,1,0.24000000000003752,0.21977884606394582)"><svg viewBox="0 0 395.5199999999999 206.5604423078721" height="206.5604423078721" width="395.5199999999999"><g><svg viewBox="0 0 395.5199999999999 206.5604423078721" height="206.5604423078721" width="395.5199999999999"><g transform="matrix(1,0,0,1,0,127.66264014022224)"><svg viewBox="0 0 395.5199999999999 78.89780216764987" height="78.89780216764987" width="395.5199999999999"><g id="textblocktransform"><svg viewBox="0 0 395.5199999999999 78.89780216764987" height="78.89780216764987" width="395.5199999999999" id="textblock"><g><svg viewBox="0 0 395.5199999999999 78.89780216764987" height="78.89780216764987" width="395.5199999999999"><g transform="matrix(1,0,0,1,0,0)"><svg width="395.5199999999999" viewBox="4 -35.01 177.94 35.5" height="78.89780216764987" data-palette-color="#ffffff"><path d="M23.71-22.05L23.71-22.05Q23.71-20.26 23.03-18.7 22.36-17.14 21.19-15.97 20.02-14.79 18.44-14.12 16.87-13.45 15.09-13.45L15.09-13.45 7.15-13.45 7.15 0 4 0 4-35.01 15.09-35.01Q16.87-35.01 18.44-34.34 20.02-33.67 21.19-32.5 22.36-31.32 23.03-29.75 23.71-28.17 23.71-26.39L23.71-26.39 23.71-22.05ZM20.56-22.05L20.56-26.39Q20.56-27.56 20.12-28.58 19.68-29.59 18.91-30.36 18.14-31.13 17.13-31.57 16.11-32.01 14.94-32.01L14.94-32.01 7.15-32.01 7.15-16.46 14.94-16.46Q16.11-16.46 17.13-16.89 18.14-17.33 18.91-18.09 19.68-18.85 20.12-19.86 20.56-20.87 20.56-22.05L20.56-22.05ZM45.41 0L44.41 0 42.75-2.54Q41.72-1.15 40.18-0.33 38.64 0.49 36.81 0.49L36.81 0.49 36.06 0.49Q34.54 0.49 33.2-0.09 31.86-0.66 30.86-1.66 29.86-2.66 29.28-4 28.71-5.35 28.71-6.86L28.71-6.86 28.71-25 31.71-25 31.71-6.69Q31.71-5.79 32.05-4.99 32.39-4.2 32.98-3.61 33.57-3.03 34.36-2.69 35.15-2.34 36.06-2.34L36.06-2.34 38.06-2.34Q38.96-2.34 39.76-2.69 40.55-3.03 41.14-3.61 41.72-4.2 42.06-4.99 42.4-5.79 42.4-6.69L42.4-6.69 42.4-25 45.41-25 45.41 0ZM68.11-6.86L68.11-6.86Q68.11-5.35 67.54-4 66.96-2.66 65.96-1.66 64.96-0.66 63.62-0.09 62.28 0.49 60.76 0.49L60.76 0.49 58.76 0.49Q57.25 0.49 55.9-0.09 54.56-0.66 53.56-1.66 52.56-2.66 51.98-4 51.41-5.35 51.41-6.86L51.41-6.86 51.41-35.01 54.41-35.01 54.41-22.9Q55.44-24.12 56.88-24.8 58.32-25.49 60-25.49L60-25.49 60.76-25.49Q62.28-25.49 63.62-24.91 64.96-24.34 65.96-23.34 66.96-22.34 67.54-21 68.11-19.65 68.11-18.14L68.11-18.14 68.11-6.86ZM65.11-6.69L65.11-18.31Q65.11-19.21 64.77-20.01 64.42-20.8 63.84-21.39 63.25-21.97 62.46-22.31 61.66-22.66 60.76-22.66L60.76-22.66 58.76-22.66Q57.86-22.66 57.06-22.31 56.27-21.97 55.68-21.39 55.1-20.8 54.76-20.01 54.41-19.21 54.41-18.31L54.41-18.31 54.41-6.69Q54.41-5.79 54.76-4.99 55.1-4.2 55.68-3.61 56.27-3.03 57.06-2.69 57.86-2.34 58.76-2.34L58.76-2.34 60.76-2.34Q61.66-2.34 62.46-2.69 63.25-3.03 63.84-3.61 64.42-4.2 64.77-4.99 65.11-5.79 65.11-6.69L65.11-6.69ZM77.63 0L74.63 0 74.63-35.01 77.63-35.01 77.63 0ZM88.88-31.01L85.39-31.01 85.39-35.01 88.88-35.01 88.88-31.01ZM88.64 0L85.63 0 85.63-25 88.64-25 88.64 0ZM112.34-6.86L112.34-6.86Q112.34-5.35 111.77-4 111.19-2.66 110.19-1.66 109.19-0.66 107.85-0.09 106.51 0.49 104.99 0.49L104.99 0.49 102.99 0.49Q101.48 0.49 100.13-0.09 98.79-0.66 97.79-1.66 96.79-2.66 96.22-4 95.64-5.35 95.64-6.86L95.64-6.86 95.64-18.14Q95.64-19.65 96.22-21 96.79-22.34 97.79-23.34 98.79-24.34 100.13-24.91 101.48-25.49 102.99-25.49L102.99-25.49 104.99-25.49Q106.51-25.49 107.85-24.91 109.19-24.34 110.19-23.34 111.19-22.34 111.77-21 112.34-19.65 112.34-18.14L112.34-18.14 112.34-17.14 109.34-16.65 109.34-18.31Q109.34-19.21 109-20.01 108.65-20.8 108.07-21.39 107.48-21.97 106.69-22.31 105.9-22.66 104.99-22.66L104.99-22.66 102.99-22.66Q102.09-22.66 101.29-22.31 100.5-21.97 99.91-21.39 99.33-20.8 98.99-20.01 98.64-19.21 98.64-18.31L98.64-18.31 98.64-6.69Q98.64-5.79 98.99-4.99 99.33-4.2 99.91-3.61 100.5-3.03 101.29-2.69 102.09-2.34 102.99-2.34L102.99-2.34 104.99-2.34Q105.9-2.34 106.69-2.69 107.48-3.03 108.07-3.61 108.65-4.2 109-4.99 109.34-5.79 109.34-6.69L109.34-6.69 109.34-8.35 112.34-7.86 112.34-6.86ZM159.24 0L156.23 0 156.23-18.31Q156.23-19.21 155.89-20.01 155.55-20.8 154.96-21.39 154.38-21.97 153.58-22.31 152.79-22.66 151.89-22.66L151.89-22.66 150.4-22.66Q149.49-22.66 148.7-22.31 147.91-21.97 147.31-21.39 146.71-20.8 146.37-20.01 146.03-19.21 146.03-18.31L146.03-18.31 146.03 0 143.05 0 143.05-18.31Q143.05-19.21 142.71-20.01 142.37-20.8 141.77-21.39 141.17-21.97 140.38-22.31 139.58-22.66 138.68-22.66L138.68-22.66 137.19-22.66Q136.29-22.66 135.49-22.31 134.7-21.97 134.11-21.39 133.53-20.8 133.19-20.01 132.84-19.21 132.84-18.31L132.84-18.31 132.84 0 129.84 0 129.84-25 130.84-25 132.48-22.46Q133.5-23.85 135.05-24.67 136.6-25.49 138.43-25.49L138.43-25.49 138.68-25.49Q140.8-25.49 142.51-24.44 144.22-23.39 145.15-21.66L145.15-21.66Q145.61-22.51 146.3-23.22 146.98-23.93 147.81-24.43 148.64-24.93 149.62-25.21 150.59-25.49 151.64-25.49L151.64-25.49 151.89-25.49Q153.4-25.49 154.74-24.91 156.09-24.34 157.09-23.34 158.09-22.34 158.66-21 159.24-19.65 159.24-18.14L159.24-18.14 159.24 0ZM181.94-6.86L181.94-6.86Q181.94-5.35 181.36-4 180.79-2.66 179.79-1.66 178.79-0.66 177.45-0.09 176.1 0.49 174.59 0.49L174.59 0.49 172.59 0.49Q171.07 0.49 169.73-0.09 168.39-0.66 167.39-1.66 166.39-2.66 165.81-4 165.24-5.35 165.24-6.86L165.24-6.86 165.24-18.14Q165.24-19.65 165.81-21 166.39-22.34 167.39-23.34 168.39-24.34 169.73-24.91 171.07-25.49 172.59-25.49L172.59-25.49 174.59-25.49Q176.1-25.49 177.45-24.91 178.79-24.34 179.79-23.34 180.79-22.34 181.36-21 181.94-19.65 181.94-18.14L181.94-18.14 181.94-12.26 168.24-12.26 168.24-6.69Q168.24-5.79 168.58-4.99 168.93-4.2 169.51-3.61 170.1-3.03 170.89-2.69 171.68-2.34 172.59-2.34L172.59-2.34 174.59-2.34Q175.49-2.34 176.29-2.69 177.08-3.03 177.67-3.61 178.25-4.2 178.59-4.99 178.94-5.79 178.94-6.69L178.94-6.69 178.94-8.35 181.94-7.86 181.94-6.86ZM178.94-14.6L178.94-18.31Q178.94-19.21 178.59-20.01 178.25-20.8 177.67-21.39 177.08-21.97 176.29-22.31 175.49-22.66 174.59-22.66L174.59-22.66 172.59-22.66Q171.68-22.66 170.89-22.31 170.1-21.97 169.51-21.39 168.93-20.8 168.58-20.01 168.24-19.21 168.24-18.31L168.24-18.31 168.24-14.6 178.94-14.6Z" opacity="1" transform="matrix(1,0,0,1,0,0)" fill="#000000" class="wordmark-text-0" data-fill-palette-color="primary" id="text-0"></path></svg></g></svg></g></svg></g></svg></g><g transform="matrix(1,0,0,1,143.24161870215391,0)"><svg viewBox="0 0 109.03676259569212 109.03676259569212" height="109.03676259569212" width="109.03676259569212"><g><svg></svg></g><g id="icon-0"><svg viewBox="0 0 109.03676259569212 109.03676259569212" height="109.03676259569212" width="109.03676259569212"><g><path transform="scale(1.09037,1.09037)" d="M30 100c-16.569 0-30-13.431-30-30v-40c0-16.569 13.431-30 30-30h40c16.569 0 30 13.431 30 30v40c0 16.569-13.431 30-30 30z" fill="#000000" fill-rule="nonzero" stroke="none" stroke-width="1" stroke-linecap="butt" stroke-linejoin="miter" stroke-miterlimit="10" stroke-dasharray="" stroke-dashoffset="0" font-family="none" font-weight="none" font-size="none" text-anchor="none" style="mix-blend-mode: normal" data-fill-palette-color="accent"></path></g><g transform="matrix(1,0,0,1,21.807352519138426,21.807352519138426)"><svg viewBox="0 0 65.42205755741527 65.42205755741527" height="65.42205755741527" width="65.42205755741527"><g><svg xmlns="http://www.w3.org/2000/svg" xmlns:xlink="http://www.w3.org/1999/xlink" version="1.1" x="0" y="0" viewBox="28.243 29.348 82.51 82.51" enable-background="new 0 0 139 139" xml:space="preserve" height="65.42205755741527" width="65.42205755741527" class="icon-dxe-0" data-fill-palette-color="quaternary" id="dxe-0"><path d="M70.794 29.381C70.541 29.367 70.29 29.348 70.035 29.348 69.969 29.348 69.903 29.356 69.837 29.357 69.724 29.356 69.612 29.348 69.498 29.348 46.75 29.348 28.243 47.855 28.243 70.602 28.243 93.351 46.75 111.858 69.498 111.858S110.753 93.351 110.753 70.602C110.753 48.29 92.943 30.069 70.794 29.381M70.145 105.812C70.108 105.813 70.073 105.818 70.036 105.818S69.963 105.813 69.927 105.812zM66.497 105.036C62.33 103.187 58.667 98.167 56.171 91.328 59.425 90.532 62.9 90.015 66.497 89.81zM66.497 83.805C62.318 84.026 58.264 84.635 54.459 85.591 53.575 81.883 53.006 77.836 52.82 73.603H66.497zM52.818 67.603C53.021 62.923 53.695 58.473 54.742 54.453 58.458 55.363 62.414 55.935 66.497 56.147V67.603zM66.497 50.137A58 58 0 0 1 56.603 48.706C59.08 42.448 62.563 37.874 66.497 36.13zM72.497 56.2C76.95 56.038 81.277 55.44 85.326 54.446 86.374 58.468 87.049 62.92 87.252 67.603H72.497zM72.497 50.193V35.728C76.875 37.065 80.775 41.895 83.476 48.733 80.019 49.548 76.317 50.043 72.497 50.193M85.186 39.043A35.4 35.4 0 0 1 93.709 45.011 40 40 0 0 1 89.242 46.989C88.093 44.027 86.729 41.358 85.186 39.043M50.833 46.976A39 39 0 0 1 45.681 44.637 35.4 35.4 0 0 1 55.393 38.303C53.643 40.778 52.106 43.697 50.833 46.976M48.976 52.698C47.769 57.242 47.019 62.269 46.814 67.602H34.38A35.06 35.06 0 0 1 41.525 49.181C43.79 50.538 46.293 51.713 48.976 52.698M46.815 73.603C47.006 78.499 47.658 83.131 48.7 87.372 45.861 88.433 43.239 89.707 40.892 91.172A35.05 35.05 0 0 1 34.38 73.604H46.815zM50.43 93.111C51.787 96.857 53.479 100.168 55.437 102.924A35.4 35.4 0 0 1 44.84 95.768C46.544 94.767 48.424 93.882 50.43 93.111M72.497 105.438V89.754C76.463 89.914 80.31 90.456 83.896 91.336 81.188 98.753 77.105 104.029 72.497 105.438M72.497 83.744V73.603H87.25C87.064 77.825 86.498 81.861 85.618 85.56 81.502 84.53 77.085 83.907 72.497 83.744M93.256 73.603H104.616A35 35 0 0 1 98.435 90.707C96.277 89.42 93.912 88.296 91.376 87.347 92.415 83.111 93.064 78.487 93.256 73.603M93.257 67.603C93.051 62.269 92.302 57.242 91.095 52.697A45 45 0 0 0 97.803 49.611 35.06 35.06 0 0 1 104.616 67.603zM85.146 102.184C86.887 99.583 88.402 96.531 89.639 93.117A38.5 38.5 0 0 1 94.543 95.388 35.5 35.5 0 0 1 85.146 102.184" fill="#ffffff" data-fill-palette-color="quaternary"></path></svg></g></svg></g></svg></g></svg></g><g></g></svg></g><defs></defs></svg><rect width="395.5199999999999" height="206.5604423078721" fill="none" stroke="none" visibility="hidden"></rect></g></svg></g></svg>